<?xml version="1.0" encoding="UTF-8"?>
<svg width="50px" height="40px" viewBox="0 0 50 40" version="1.1" xmlns="http://www.w3.org/2000/svg" xmlns:xlink="http://www.w3.org/1999/xlink">
    <!-- Generator: Sketch 53.2 (72643) - https://sketchapp.com -->
    <title>澜湄动态（选中）</title>
    <desc>Created with Sketch.</desc>
    <g id="Welcome" stroke="none" stroke-width="1" fill="none" fill-rule="evenodd">
        <g id="航班动态" transform="translate(-1660.000000, -566.000000)" fill="#1F2C5C" fill-rule="nonzero">
            <path d="M1709.92634,587.651004 C1709.92634,587.651004 1710.75582,590.852736 1706.84775,592.425296 C1702.70689,594.101644 1675.43887,605.103273 1675.43887,605.103273 C1675.43887,605.103273 1669.15382,608.883707 1666.55062,600.920264 C1663.9507,592.950531 1660,580.866981 1660,580.866981 L1668.46531,578.722009 L1666.77028,573.340709 L1702.85115,566 L1709.92634,587.651004 Z M1669.41611,599.589878 C1669.41611,599.589878 1671.03573,605.653669 1678.41911,601.851219 L1676.09787,603.203621 L1669.47184,581.908015 L1664.02938,583.115741 L1669.41611,599.589878 Z M1678.0393,586.90627 L1682.31913,600.057007 L1694.62016,595.004415 L1690.75012,583.109172 L1678.0393,586.90627 Z M1702.54042,581 L1691.66667,583.795167 L1692.51718,586 L1703.33333,583.045579 L1702.54042,581 Z M1695,586.539882 L1695.85433,589.333333 L1706.66667,585.261581 L1705.86702,582.666667 L1695,586.539882 Z M1679.63921,576.416818 L1680.28736,578.758246 C1680.62261,579.972454 1680.95785,581.048931 1681.34419,582.081914 L1681.32184,582.089163 C1680.73755,581.288148 1680.0447,580.411018 1679.3742,579.689743 L1677.0083,577.152592 L1675,577.718014 L1677.28608,586 L1678.84738,585.474447 L1678.16411,583.002537 C1677.79693,581.661472 1677.4553,580.516129 1677.10089,579.439652 L1677.1424,579.425154 C1677.75862,580.276912 1678.55045,581.179413 1679.23052,581.915187 L1681.64751,584.535701 L1683.33333,583.970279 L1681.13665,576 L1679.63921,576.416818 Z M1686.76228,580.858836 L1686.23145,579.160874 L1688.78338,578.448395 L1688.38114,577.149953 L1685.82262,577.832468 L1685.36103,576.344254 L1688.07451,575.641763 L1687.66568,574.333333 L1683.33333,575.412039 L1685.58193,582.666667 L1690,581.354907 L1689.59116,580.043148 L1686.76228,580.858836 Z M1693.16736,577.502775 C1693.10741,576.789779 1693.01275,576.134856 1692.896,575.357336 L1692.91493,575.35411 C1693.22416,576.089689 1693.50814,576.680088 1693.82999,577.315654 L1695.21204,580.006323 L1696.66667,579.570783 L1696.19021,572.666667 L1694.8334,573.008646 L1695.16155,575.796103 C1695.28146,576.612337 1695.37928,577.415667 1695.51496,578.170603 L1695.49918,578.177055 C1695.18364,577.473739 1694.87757,576.799458 1694.50524,576.070332 L1693.17367,573.424829 L1691.69696,573.795845 L1692.00303,576.657504 C1692.10085,577.531811 1692.20182,578.377081 1692.32803,579.135243 L1692.30594,579.138469 C1691.99672,578.489999 1691.6023,577.660859 1691.21419,576.896245 L1689.88578,574.250742 L1688.33333,574.641115 L1691.92099,581 L1693.46397,580.532198 L1693.16736,577.502775 Z M1699.01269,574.876255 C1699.79526,574.944175 1700.15188,575.086192 1700.27735,575.465931 C1700.40943,575.858019 1700.17829,576.20071 1699.57073,576.367425 C1699.00609,576.515616 1698.37871,576.478568 1697.95936,576.379774 L1698.06832,577.596174 C1698.46786,577.698055 1699.20091,577.70423 1699.87451,577.515904 C1701.45947,577.077506 1701.89533,576.024734 1701.56183,575.021358 C1701.28116,574.175435 1700.63067,573.743212 1699.47827,573.604283 C1698.60985,573.499315 1698.22352,573.409783 1698.10134,573.020782 C1697.99898,572.712051 1698.18389,572.366272 1698.76174,572.230431 C1699.32308,572.094589 1699.79526,572.16251 1700.06272,572.230431 L1699.99338,571.066515 C1699.59384,570.983158 1699.07873,570.958459 1698.40513,571.109737 C1697.01829,571.42773 1696.41403,572.421844 1696.76404,573.474616 C1697.06122,574.360674 1697.90983,574.762024 1699.01269,574.876255 Z" id="澜湄动态（选中）"></path>
        </g>
    </g>
</svg>